<svg width="67" height="67" viewBox="0 0 67 67" fill="none" xmlns="http://www.w3.org/2000/svg">
<path fill-rule="evenodd" clip-rule="evenodd" d="M11.078 25.125C14.4728 16.0401 23.231 9.57143 33.5 9.57143C43.769 9.57143 52.527 16.0401 55.922 25.125H11.078ZM9.60081 32.3036C9.58129 32.6999 9.57143 33.0988 9.57143 33.5C9.57143 45.4955 18.3981 55.4296 29.9107 57.161V43.7551L19.8906 32.3036H9.60081ZM37.0893 57.161C48.6018 55.4296 57.4286 45.4955 57.4286 33.5C57.4286 33.0988 57.4185 32.6999 57.3994 32.3036H47.1094L37.0893 43.7551V57.161ZM33.5 0C14.9985 0 0 14.9985 0 33.5C0 52.0016 14.9985 67 33.5 67C52.0016 67 67 52.0016 67 33.5C67 14.9985 52.0016 0 33.5 0Z" fill="black"/>
</svg>
