<svg width="375" height="94" viewBox="0 0 375 94" fill="none" xmlns="http://www.w3.org/2000/svg">
<path d="M28 80.625L46.125 1H56.5625L60.6875 10.875L41.375 92H29.9375L28 80.625ZM20.9375 1L36.125 81L33.5 92H20.5L0.75 1H20.9375ZM73.625 80.5625L88.625 1H108.75L89 92H76.125L73.625 80.5625ZM63.375 1L81.75 81.0625L79.625 92H68.25L48.625 10.8125L52.9375 1H63.375ZM112.312 58.875V57.5625C112.312 52.6042 113.021 48.0417 114.438 43.875C115.854 39.6667 117.938 36.0208 120.688 32.9375C123.438 29.8542 126.812 27.4583 130.812 25.75C134.812 24 139.396 23.125 144.562 23.125C149.812 23.125 154.438 24 158.438 25.75C162.479 27.4583 165.875 29.8542 168.625 32.9375C171.375 36.0208 173.458 39.6667 174.875 43.875C176.292 48.0417 177 52.6042 177 57.5625V58.875C177 63.7917 176.292 68.3542 174.875 72.5625C173.458 76.7292 171.375 80.375 168.625 83.5C165.875 86.5833 162.5 88.9792 158.5 90.6875C154.5 92.3958 149.896 93.25 144.688 93.25C139.521 93.25 134.917 92.3958 130.875 90.6875C126.833 88.9792 123.438 86.5833 120.688 83.5C117.938 80.375 115.854 76.7292 114.438 72.5625C113.021 68.3542 112.312 63.7917 112.312 58.875ZM131.875 57.5625V58.875C131.875 61.5417 132.083 64.0417 132.5 66.375C132.958 68.7083 133.688 70.75 134.688 72.5C135.688 74.25 137 75.625 138.625 76.625C140.292 77.5833 142.312 78.0625 144.688 78.0625C147.062 78.0625 149.062 77.5833 150.688 76.625C152.312 75.625 153.625 74.25 154.625 72.5C155.625 70.75 156.333 68.7083 156.75 66.375C157.208 64.0417 157.438 61.5417 157.438 58.875V57.5625C157.438 54.9375 157.208 52.4792 156.75 50.1875C156.333 47.8542 155.625 45.7917 154.625 44C153.625 42.2083 152.292 40.8125 150.625 39.8125C149 38.8125 146.979 38.3125 144.562 38.3125C142.229 38.3125 140.25 38.8125 138.625 39.8125C137 40.8125 135.688 42.2083 134.688 44C133.688 45.7917 132.958 47.8542 132.5 50.1875C132.083 52.4792 131.875 54.9375 131.875 57.5625ZM184.438 58.875V57.5625C184.438 52.6042 185.146 48.0417 186.562 43.875C187.979 39.6667 190.062 36.0208 192.812 32.9375C195.562 29.8542 198.938 27.4583 202.938 25.75C206.938 24 211.521 23.125 216.688 23.125C221.938 23.125 226.562 24 230.562 25.75C234.604 27.4583 238 29.8542 240.75 32.9375C243.5 36.0208 245.583 39.6667 247 43.875C248.417 48.0417 249.125 52.6042 249.125 57.5625V58.875C249.125 63.7917 248.417 68.3542 247 72.5625C245.583 76.7292 243.5 80.375 240.75 83.5C238 86.5833 234.625 88.9792 230.625 90.6875C226.625 92.3958 222.021 93.25 216.812 93.25C211.646 93.25 207.042 92.3958 203 90.6875C198.958 88.9792 195.562 86.5833 192.812 83.5C190.062 80.375 187.979 76.7292 186.562 72.5625C185.146 68.3542 184.438 63.7917 184.438 58.875ZM204 57.5625V58.875C204 61.5417 204.208 64.0417 204.625 66.375C205.083 68.7083 205.812 70.75 206.812 72.5C207.812 74.25 209.125 75.625 210.75 76.625C212.417 77.5833 214.438 78.0625 216.812 78.0625C219.188 78.0625 221.188 77.5833 222.812 76.625C224.438 75.625 225.75 74.25 226.75 72.5C227.75 70.75 228.458 68.7083 228.875 66.375C229.333 64.0417 229.562 61.5417 229.562 58.875V57.5625C229.562 54.9375 229.333 52.4792 228.875 50.1875C228.458 47.8542 227.75 45.7917 226.75 44C225.75 42.2083 224.417 40.8125 222.75 39.8125C221.125 38.8125 219.104 38.3125 216.688 38.3125C214.354 38.3125 212.375 38.8125 210.75 39.8125C209.125 40.8125 207.812 42.2083 206.812 44C205.812 45.7917 205.083 47.8542 204.625 50.1875C204.208 52.4792 204 54.9375 204 57.5625Z" fill="#111111"/>
<path d="M280.75 1V92H260.375V1H280.75ZM316.562 39.375V55.125H275.062V39.375H316.562ZM320.562 1V16.8125H275.062V1H320.562ZM374.188 0.9375V92H354.625V23.1875L333.5 29.625V14.5L372.25 0.9375H374.188Z" fill="#EE1F31"/>
</svg>
